<svg xmlns="http://www.w3.org/2000/svg" viewBox="0 0 155.64 359.66"><defs><style>.cls-1{fill:none;stroke:#fff;stroke-miterlimit:10;opacity:0.5;}</style></defs><title>Asset 3</title><g id="Layer_2" data-name="Layer 2"><g id="car"><path class="cls-1" d="M147.74,215.37l7.4-5.4v-4l-6.27,0s-1.16-160.7-5-167.44S135.41,12.35,123,7.29,77.74.5,77.74.5,45,2.15,32.51,7.18s-17.2,24.45-21,31.17S6.13,205.78,6.13,205.78L.5,205.71v5.16l6.74,4.33s1.09,25.25,1.42,32.32-4.43,46.12-1.77,72,42.72,31,43,35.4,27.38,4.19,27.38,4.19,27,.25,27.39-4.12,40.41-9.38,43.13-35.3-1.94-65-1.6-72S147.74,215.37,147.74,215.37Z"/></g></g></svg>